# xmcd CD database file
#
# Track frame offsets:
#	150
#	17693
#	34798
#	52332
#	68415
#	86274
#	103562
#	118886
#	137815
#	154889
#	172339
#	188138
#	202455
#	221257
#	238857
#	254216
#
# Disc length: 3634 seconds
#
# Revision: 0
# Processed by: cddbd v1.5.2PL0 Copyright (c) Steve Scherf et al.
# Submitted via: CDex 1.50
#
DISCID=f50e3010
DTITLE=Relax - Lebensg'fühl - 25 Jahre Relax
DYEAR=2006
DGENRE=Schlager
TTITLE0=Heimweh nach dir
TTITLE1=Tanz mit mir
TTITLE2=Weil i di mog
TTITLE3=1000 Küsse
TTITLE4=Schau mi net so an
TTITLE5=Ned Fisch ned Fleisch
TTITLE6=Spatzl, i steh auf di
TTITLE7=Heut' geh' ma net hoam
TTITLE8=Buona Sera setz di her a
TTITLE9=Ein weißes Blatt'l Papier
TTITLE10=Oh Rosita
TTITLE11=I steh zu dir
TTITLE12=Du bist genau, was i will
TTITLE13=Bleib heut' Nacht bei mir
TTITLE14=Ja mei (des derf doch net sei)
TTITLE15=Radio hör'n
EXTD=YEAR: 2006
EXTT0=
EXTT1=
EXTT2=
EXTT3=
EXTT4=
EXTT5=
EXTT6=
EXTT7=
EXTT8=
EXTT9=
EXTT10=
EXTT11=
EXTT12=
EXTT13=
EXTT14=
EXTT15=
PLAYORDER=
